<svg xmlns="http://www.w3.org/2000/svg" width="14" height="14" viewBox="0 0 14 14">
  <path id="search" data-name="Forma 1" class="cls-1" d="M1574.69,94.166l-2.89-2.886a5.737,5.737,0,0,0,1.05-3.357,5.861,5.861,0,0,0-3.63-5.457,5.9,5.9,0,0,0-4.6,0,5.8,5.8,0,0,0-3.15,3.155,5.971,5.971,0,0,0,1.26,6.5,5.929,5.929,0,0,0,1.89,1.262,5.812,5.812,0,0,0,2.3.467,5.749,5.749,0,0,0,3.36-1.044l2.89,2.877a0.985,0.985,0,0,0,.75.32,1.022,1.022,0,0,0,.76-0.32,1.047,1.047,0,0,0,.32-0.757A1.02,1.02,0,0,0,1574.69,94.166Zm-5.1-3.58a3.774,3.774,0,1,1,1.1-2.663A3.646,3.646,0,0,1,1569.59,90.586Z" transform="translate(-1561 -82)"/>
</svg>
